# AST/ASF file generated using VICON BodyLanguage
# -----------------------------------------------
:version 1.10
:name VICON
:units
  mass 1.0
  length 0.45
  angle deg
:documentation
   .ast/.asf automatically generated from VICON data using
   VICON BodyBuilder and BodyLanguage model FoxedUp or BRILLIANT.MOD
:root
   order TX TY TZ RX RY RZ
   axis XYZ
   position 0 0 0  
   orientation 0 0 0 
:bonedata
  begin
     id 1 
     name lhipjoint
     direction 0.692814 -0.645514 0.321437 
     length 2.38754 
     axis 0 0 0  XYZ
  end
  begin
     id 2 
     name lfemur
     direction 0.34202 -0.939693 0  
     length 6.41921  
     axis 0 0 20  XYZ
    dof rx ry rz
    limits (-160.0 20.0)
           (-70.0 70.0)
           (-60.0 70.0)
  end
  begin
     id 3 
     name ltibia
     direction 0.34202 -0.939693 0   
     length 6.98247   
     axis 0 0 20   XYZ
    dof rx
    limits (-10.0 170.0)
  end
  begin
     id 4 
     name lfoot
     direction 0.0947186 -0.260237 0.960888   
     length 1.83034   
     axis -90 7.62852e-016 20   XYZ
    dof rx rz
    limits (-45.0 90.0)
           (-70.0 20.0)
  end
  begin
     id 5 
     name ltoes
     direction 1.53538e-011 -4.21952e-011 1   
     length 0.920499   
     axis -90 7.62852e-016 20   XYZ
    dof rx
    limits (-90.0 20.0)
  end
  begin
     id 6 
     name rhipjoint
     direction -0.631686 -0.693949 0.345555   
     length 2.2209  
     axis 0 0 0  XYZ 
  end
  begin
     id 7 
     name rfemur
     direction -0.34202 -0.939693 0   
     length 6.49542   
     axis 0 0 -20   XYZ
    dof rx ry rz
    limits (-160.0 20.0)
           (-70.0 70.0)
           (-70.0 60.0)
  end
  begin
     id 8 
     name rtibia
     direction -0.34202 -0.939693 0   
     length 7.21712   
     axis 0 0 -20   XYZ
    dof rx
    limits (-10.0 170.0)
 end
 begin
     id 9 
     name rfoot
     direction -0.0825378 -0.226771 0.970444   
     length 1.89724  
     axis -90 -7.62852e-016 -20   XYZ
    dof rx rz
    limits (-45.0 90.0)
           (-20.0 70.0)
  end
  begin
     id 10 
     name rtoes
     direction -1.53515e-011 -4.22016e-011 1   
     length 0.955868   
     axis -90 -7.62852e-016 -20   XYZ
    dof rx
    limits (-90.0 20.0)
  end
  begin
     id 11 
     name lowerback
     direction -0.0104711 0.984802 -0.173368   
     length 1.84931   
     axis 0 0 0   XYZ
    dof rx ry rz
    limits (-20.0 45.0)
           (-30.0 30.0)
           (-30.0 30.0)
  end
  begin
     id 12 
     name upperback
     direction -0.00286433 0.999996 -0.000382853   
     length 1.85768   
     axis 0 0 0   XYZ
    dof rx ry rz
    limits (-20.0 45.0)
           (-30.0 30.0)
           (-30.0 30.0)
  end
  begin
     id 13 
     name thorax
     direction 0.00167534 0.996793 0.0800069   
     length 1.92   
     axis 0 0 0   XYZ
    dof rx ry rz
    limits (-20.0 45.0)
           (-30.0 30.0)
           (-30.0 30.0)
  end
  begin
     id 14 
     name lowerneck
     direction -0.0672491 0.995415 0.068018   
     length 1.58923   
     axis 0 0 0   XYZ
    dof rx ry rz
    limits (-20.0 45.0)
           (-30.0 30.0)
           (-30.0 30.0)
  end
  begin
     id 15 
     name upperneck
     direction 0.0958019 0.982476 -0.159884   
     length 1.60189   
     axis 0 0 0   XYZ
    dof rx ry rz
    limits (-20.0 45.0)
           (-30.0 30.0)
           (-30.0 30.0)
  end
  begin
     id 16
     name head
     direction 0.032989 0.997338 -0.0650226  
     length 1.61681  
     axis 0 0 0   XYZ
    dof rx ry rz
    limits (-20.0 45.0)
           (-30.0 30.0)
           (-30.0 30.0)
  end
  begin
     id 17 
     name lclavicle
     direction 0.954279 0.298875 -0.00496069  
     length 2.99449  
     axis 0 0 0   XYZ
    dof ry rz
    limits (-20.0 10.0)
           (0.0 20.0)
  end
  begin
     id 18 
     name lhumerus
     direction 1 -4.48985e-011 -4.2057e-027   
     length 4.79185   
     axis 180 -30 -90   XYZ
    dof rx ry rz
    limits (-60.0 90.0)
           (-90.0 90.0)
           (-90.0 90.0)
  end
  begin
     id 19
     name lradius
     direction 1 -4.48945e-011 1.15441e-028   
     length 2.65553   
     axis 180 -30 -90   XYZ
    dof rx
    limits (-10.0 170.0)
  end
  begin
     id 20
     name lwrist
     direction 1 -4.4899e-011 4.8894e-028   
     length 1.32777   
     axis -2.56392e-016 90 90   XYZ
    dof ry
    limits (-180.0 0.0)
 end
  begin
     id 21 
     name lhand
     direction 1 -4.48908e-011 9.7788e-028   
     length 0.743904   
     axis -6.23971e-016 90 90   XYZ
    dof rx rz
    limits (-90.0 90.0)
           (-45.0 45.0)
  end
  begin
     id 22 
     name lfingers
     direction 1 -4.49068e-011 1.95576e-027   
     length 0.599754   
     axis -1.24794e-015 90 90   XYZ
    dof rx
    limits (0.0 90.0)
  end
  begin
     id 23
     name lthumb
     direction 0.707107 -6.34883e-011 0.707107   
     length 0.861131   
     axis -90 45 2.85299e-015   XYZ
    dof rx rz
    limits (-45.0 45.0)
           (-45.0 45.0)
  end
  begin
     id 24 
     name rclavicle
     direction -0.957921 0.286916 0.00811568   
     length 3.06817  
     axis 0 0 0   XYZ 
    dof ry rz
    limits (-10.0 20.0)
           (-20.0 0.0)
  end
  begin
     id 25 
     name rhumerus
     direction -1 -4.48971e-011 -3.07942e-027  
     length 4.77254   
     axis 180 30 90   XYZ
    dof rx ry rz
    limits (-90.0 60.0)
           (-90.0 90.0)
           (-90.0 90.0)
  end
  begin
     id 26 
     name rradius
     direction -1 -4.48957e-011 -9.6815e-028   
     length 2.75995   
     axis 180 30 90   XYZ
    dof rx
    limits (-10.0 170.0)
  end
  begin
     id 27 
     name rwrist
     direction -1 -4.48979e-011 4.8894e-028   
     length 1.37997   
     axis -2.56392e-016 -90 -90   XYZ
    dof ry
    limits (-180.0 0.0)
  end
  begin
     id 28
     name rhand
     direction -1 -4.48906e-011 9.7788e-028   
     length 0.701619   
     axis -6.23971e-016 -90 -90   XYZ
    dof rx rz
    limits (-90.0 90.0)
           (-45.0 45.0)
  end
  begin
     id 29
     name rfingers
     direction -1 -4.49018e-011 1.95576e-027   
     length 0.565663   
     axis -1.24794e-015 -90 -90   XYZ
    dof rx
    limits (0.0 90.0)
  end
  begin
     id 30
     name rthumb
     direction -0.707107 -6.34881e-011 0.707107   
     length 0.812183   
     axis -90 -45 -2.85299e-015   XYZ
    dof rx rz
    limits (-45.0 45.0)
           (-45.0 45.0)
  end
:hierarchy
  begin
    root lhipjoint rhipjoint lowerback
    lhipjoint lfemur
    lfemur ltibia
    ltibia lfoot
    lfoot ltoes
    rhipjoint rfemur
    rfemur rtibia
    rtibia rfoot
    rfoot rtoes
    lowerback upperback
    upperback thorax
    thorax lowerneck lclavicle rclavicle
    lowerneck upperneck
    upperneck head
    lclavicle lhumerus
    lhumerus lradius
    lradius lwrist
    lwrist lhand lthumb
    lhand lfingers
    rclavicle rhumerus
    rhumerus rradius
    rradius rwrist
    rwrist rhand rthumb
    rhand rfingers
  end

#!OML:ASF F:\VICON\USERDATA\INSTALL\rory3\rory3.ASF
:FULLY-SPECIFIED
:DEGREES
664
root 0.0822086 15.1457 -2.72362 9.51047 5.81266 -0.953975
lowerback 33.0513 1.93196 -1.64702
upperback 12.4712 1.93234 -0.670278
thorax -3.77224 0.940517 -0.469804
lowerneck -16.1927 -7.15471 -11.9807
upperneck -4.56135 -7.69204 14.3779
head 2.31279 -3.30973 5.82606
rclavicle 5.56597e-015 1.39149e-015
rhumerus 23.3111 22.872 -71.4468
rradius 123.603
rwrist 30.0009
rhand -1.99628 5.22901
rfingers 7.12502
rthumb 23.677 -23.3328
lclavicle 5.56597e-015 1.39149e-015
lhumerus 18.8015 -22.8995 68.1648
lradius 116.055
lwrist -1.90775
lhand -14.6971 20.4113
lfingers 7.12502
lthumb 11.4569 50.0783
rfemur -40.3043 6.63169 14.6205
rtibia 49.8257
rfoot -14.6133 -13.9275
rtoes -15.1278
lfemur -41.7007 -9.58163 -11.6174
ltibia 46.225
lfoot -10.4552 2.47405
ltoes -17.0003
665
root 0.0909589 15.1441 -2.72288 9.5274 5.71994 -0.992296
lowerback 33.0683 1.9753 -1.66162
upperback 12.4824 1.97937 -0.676115
thorax -3.76694 0.962378 -0.484443
lowerneck -16.3325 -7.01267 -11.9631
upperneck -4.43427 -7.49345 14.2389
head 2.33714 -3.20689 5.79442
rclavicle -7.05686e-015 1.77912e-014
rhumerus 23.6034 22.6283 -71.3019
rradius 123.854
rwrist 29.7535
rhand -1.55924 4.89496
rfingers 7.12502
rthumb 24.0961 -23.612
lclavicle -7.05686e-015 1.77912e-014
lhumerus 18.7468 -22.803 68.3816
lradius 116.003
lwrist -1.91158
lhand -14.8811 19.8899
lfingers 7.12502
lthumb 11.2794 49.5666
rfemur -40.3088 6.67178 14.636
rtibia 49.7587
rfoot -14.4449 -14.0086
rtoes -15.7045
lfemur -41.7083 -9.5345 -11.6117
ltibia 46.2259
lfoot -10.4502 2.4738
ltoes -16.9818
666
root 0.100555 15.145 -2.72121 9.51943 5.61692 -1.00604
lowerback 33.0974 2.01529 -1.69268
upperback 12.4878 2.01696 -0.682271
thorax -3.77397 0.979241 -0.487151
lowerneck -16.5102 -6.86534 -11.9607
upperneck -4.23631 -7.28557 14.0645
head 2.38578 -3.09822 5.75347
rclavicle -3.27995e-015 2.22639e-014
rhumerus 23.7699 22.2764 -71.2611
rradius 124.052
rwrist 29.2689
rhand -0.273579 4.9548
rfingers 7.12502
rthumb 25.3283 -23.3833
lclavicle -3.27995e-015 2.22639e-014
lhumerus 18.5079 -22.6161 68.7903
lradius 115.852
lwrist -2.11438
lhand -14.9784 19.0324
lfingers 7.12502
lthumb 11.1856 48.7142
rfemur -40.2683 6.70347 14.6422
rtibia 49.6906
rfoot -14.24 -14.1372
rtoes -16.8508
lfemur -41.6716 -9.51983 -11.6312
ltibia 46.2232
lfoot -10.4901 2.57466
ltoes -17.1374
667
root 0.112525 15.1499 -2.72087 9.49371 5.54607 -0.981352
lowerback 33.5842 2.04622 -1.69698
upperback 12.1306 2.0358 -0.725169
thorax -3.83357 0.992737 -0.520848
lowerneck -16.6676 -6.69048 -11.8854
upperneck -4.14114 -7.04471 13.8246
head 2.39079 -2.97804 5.68475
rclavicle 3.8763e-015 2.73329e-014
rhumerus 23.9133 21.9752 -71.1407
rradius 124.055
rwrist 29.1345
rhand 0.172405 4.79595
rfingers 7.12502
rthumb 25.7555 -23.481
lclavicle 3.8763e-015 2.73329e-014
lhumerus 18.4976 -22.7281 68.6768
lradius 115.816
lwrist -1.86991
lhand -15.7704 19.0494
lfingers 7.12502
lthumb 10.4216 48.7711
rfemur -40.1969 6.71662 14.5554
rtibia 49.6265
rfoot -14.3827 -13.9549
rtoes -15.9673
lfemur -41.6008 -9.53132 -11.7103
ltibia 46.2178
lfoot -10.5379 2.64496
ltoes -17.1239
668
root 0.122184 15.1523 -2.7216 9.48893 5.53198 -1.11486
lowerback 33.6291 2.02867 -1.52577
upperback 12.1202 2.06352 -0.734384
thorax -3.85717 1.01063 -0.631027
lowerneck -16.8074 -6.46704 -11.7396
upperneck -4.04056 -6.75249 13.5505
head 2.38528 -2.83472 5.59861
rclavicle 7.85199e-015 5.66536e-015
rhumerus 24.0269 21.8143 -70.955
rradius 123.915
rwrist 29.5012
rhand -0.255091 4.74805
rfingers 7.12502
rthumb 25.346 -23.5876
lclavicle 7.85199e-015 5.66536e-015
lhumerus 18.7231 -23.0149 68.1631
lradius 116.058
lwrist -1.29684
lhand -16.6047 20.0419
lfingers 7.12502
lthumb 9.61677 49.8024
rfemur -40.1557 6.71341 14.6614
rtibia 49.555
rfoot -14.4627 -13.8416
rtoes -15.5431
lfemur -41.6033 -9.47699 -11.6075
ltibia 46.2238
lfoot -10.5406 2.57861
ltoes -16.9161
669
root 0.130114 15.1524 -2.72092 9.48488 5.50148 -1.15892
lowerback 33.6901 2.04663 -1.48268
upperback 12.1055 2.09576 -0.743675
thorax -3.89375 1.02737 -0.675676
lowerneck -17.048 -6.1381 -11.3453
upperneck -3.85925 -6.35325 13.0308
head 2.38695 -2.6442 5.4014
rclavicle -3.97569e-016 -9.93923e-015
rhumerus 24.0976 21.7549 -70.7671
rradius 123.898
rwrist 29.6329
rhand -0.334825 4.83493
rfingers 7.12502
rthumb 25.2696 -23.5115
lclavicle -3.97569e-016 -9.93923e-015
lhumerus 18.8662 -23.093 67.9411
lradius 116.239
lwrist -1.08353
lhand -16.8198 21.3593
lfingers 7.12502
lthumb 9.40924 51.1293
rfemur -40.1026 6.65668 14.7187
rtibia 49.4805
rfoot -14.2812 -13.9428
rtoes -16.6784
lfemur -41.5925 -9.42689 -11.6021
ltibia 46.2295
lfoot -10.5358 2.55278
ltoes -16.6429
670
root 0.140407 15.1539 -2.718 9.49361 5.46529 -1.15071
lowerback 33.7023 2.05632 -1.48255
upperback 12.1154 2.10543 -0.768351
thorax -3.88648 1.03273 -0.704686
lowerneck -17.3735 -5.6835 -10.6903
upperneck -3.63584 -5.82434 12.2937
head 2.38552 -2.39613 5.10305
rclavicle 7.35503e-015 -2.14687e-014
rhumerus 24.1916 21.6903 -70.605
rradius 123.911
rwrist 29.5361
rhand 0.0103187 5.07746
rfingers 7.12502
rthumb 25.6003 -23.2219
lclavicle 7.35503e-015 -2.14687e-014
lhumerus 18.8632 -23.0411 67.9543
lradius 116.247
lwrist -1.03518
lhand -16.9739 21.7088
lfingers 7.12502
lthumb 9.26054 51.4854
rfemur -40.0558 6.60876 14.6986
rtibia 49.4085
rfoot -14.1549 -14.0048
rtoes -17.4211
lfemur -41.5828 -9.44027 -11.6518
ltibia 46.2389
lfoot -10.5869 2.61853
ltoes -16.5888
671
root 0.151452 15.1554 -2.71366 9.49636 5.43948 -1.12929
lowerback 33.7274 2.05893 -1.4953
upperback 12.1125 2.10302 -0.779042
thorax -3.89852 1.03149 -0.708968
lowerneck -17.5472 -5.26864 -10.2795
upperneck -3.51834 -5.31593 11.7099
head 2.35288 -2.1577 4.89382
rclavicle -2.10712e-014 1.6201e-014
rhumerus 24.2485 21.5858 -70.4426
rradius 123.728
rwrist 29.6213
rhand 0.212557 5.55946
rfingers 7.12502
rthumb 25.7939 -22.7119
lclavicle -2.10712e-014 1.6201e-014
lhumerus 18.8244 -22.9747 67.9782
lradius 116.363
lwrist -1.07092
lhand -16.6735 21.7946
lfingers 7.12502
lthumb 9.55035 51.5581
rfemur -40.0188 6.5869 14.6354
rtibia 49.3579
rfoot -14.157 -13.9639
rtoes -17.4276
lfemur -41.5583 -9.47511 -11.7209
ltibia 46.2383
lfoot -10.5748 2.69128
ltoes -16.9345
672
root 0.161685 15.1571 -2.7098 9.5397 5.3791 -1.0627
lowerback 33.7172 2.0795 -1.59029
upperback 12.106 2.09868 -0.780873
thorax -3.90398 1.02672 -0.65924
lowerneck -17.7005 -4.91963 -10.122
upperneck -3.45005 -4.85064 11.2762
head 2.32408 -1.93491 4.76965
rclavicle -1.03368e-014 3.40916e-014
rhumerus 24.3094 21.4754 -70.2763
rradius 123.613
rwrist 29.3988
rhand 0.549086 5.75621
rfingers 7.12502
rthumb 26.1162 -22.4679
lclavicle -1.03368e-014 3.40916e-014
lhumerus 18.809 -22.8713 68.0372
lradius 116.464
lwrist -1.18684
lhand -16.4797 21.8827
lfingers 7.12502
lthumb 9.73738 51.6376
rfemur -40.0524 6.58507 14.5055
rtibia 49.3332
rfoot -14.1909 -13.8842
rtoes -17.2461
lfemur -41.5633 -9.47981 -11.8359
ltibia 46.2332
lfoot -10.589 2.75034
ltoes -16.8745
673
root 0.171755 15.1565 -2.70908 9.55717 5.34019 -1.01338
lowerback 33.7376 2.07609 -1.63461
upperback 12.1082 2.08015 -0.778745
thorax -3.91 1.0164 -0.628043
lowerneck -17.8447 -4.55618 -10.0297
upperneck -3.41371 -4.35381 10.9025
head 2.28768 -1.69431 4.67745
rclavicle -3.67752e-015 1.65985e-014
rhumerus 24.4391 21.349 -70.0609
rradius 123.58
rwrist 28.7637
rhand 1.04518 5.50144
rfingers 7.12502
rthumb 26.5911 -22.6516
lclavicle -3.67752e-015 1.65985e-014
lhumerus 18.6369 -22.5594 68.3747
lradius 116.345
lwrist -1.56102
lhand -16.1417 20.4985
lfingers 7.12502
lthumb 10.0634 50.2379
rfemur -40.0651 6.56741 14.4045
rtibia 49.3224
rfoot -14.1527 -13.8148
rtoes -16.9954
lfemur -41.5626 -9.5076 -11.9221
ltibia 46.2433
lfoot -10.6296 2.7914
ltoes -16.9296
674
root 0.180286 15.1553 -2.70882 9.55543 5.29234 -1.05094
lowerback 33.7882 2.08504 -1.60874
upperback 12.1 2.09864 -0.751388
thorax -3.93749 1.02467 -0.620607
lowerneck -17.9595 -4.22284 -10.0197
upperneck -3.38202 -3.88758 10.6503
head 2.25696 -1.46505 4.63406
rclavicle -2.42517e-014 -6.4605e-015
rhumerus 24.4216 21.3064 -69.8469
rradius 123.429
rwrist 28.7733
rhand 0.549286 5.37127
rfingers 7.12502
rthumb 26.1164 -22.8528
lclavicle -2.42517e-014 -6.4605e-015
lhumerus 18.4354 -22.2891 68.7417
lradius 116.172
lwrist -1.92079
lhand -15.7285 19.149
lfingers 7.12502
lthumb 10.4621 48.8687
rfemur -40.059 6.59171 14.4147
rtibia 49.3105
rfoot -14.0822 -13.8171
rtoes -17.0874
lfemur -41.5589 -9.48417 -11.914
ltibia 46.2657
lfoot -10.6433 2.78434
ltoes -16.9291
675
root 0.187967 15.1563 -2.70772 9.53093 5.2274 -1.13021
lowerback 33.8534 2.11375 -1.5235
upperback 12.0828 2.15829 -0.73306
thorax -3.97829 1.0545 -0.667911
lowerneck -17.9411 -3.96219 -10.0447
upperneck -3.42976 -3.5229 10.488
head 2.19775 -1.28736 4.61693
rclavicle -1.0138e-014 2.55438e-014
rhumerus 24.2531 21.2324 -69.6913
rradius 123.211
rwrist 29.1166
rhand -0.474649 5.53433
rfingers 7.12502
rthumb 25.1357 -22.831
lclavicle -1.0138e-014 2.55438e-014
lhumerus 18.5077 -22.426 68.6236
lradius 116.163
lwrist -1.94424
lhand -15.5096 19.7964
lfingers 7.12502
lthumb 10.6732 49.5053
rfemur -40.0307 6.66342 14.4733
rtibia 49.2909
rfoot -14.0626 -13.856
rtoes -17.3251
lfemur -41.5326 -9.40357 -11.8737
ltibia 46.3005
lfoot -10.6531 2.74351
ltoes -16.728
676
root 0.195688 15.1577 -2.70584 9.52648 5.18914 -1.14342
lowerback 33.8745 2.12254 -1.45923
upperback 12.0843 2.18633 -0.754629
thorax -3.98178 1.07026 -0.733931
lowerneck -17.9587 -3.73636 -10.0631
upperneck -3.4614 -3.2058 10.3679
head 2.15523 -1.13101 4.60742
rclavicle 8.44835e-015 -3.77691e-015
rhumerus 24.1124 20.9246 -69.68
rradius 123.245
rwrist 28.6491
rhand 0.0270934 5.69898
rfingers 7.12502
rthumb 25.6163 -22.598
lclavicle 8.44835e-015 -3.77691e-015
lhumerus 18.6727 -22.6077 68.4357
lradius 116.212
lwrist -1.98809
lhand -15.3404 20.4615
lfingers 7.12502
lthumb 10.8364 50.1619
rfemur -40.0073 6.68368 14.4597
rtibia 49.2711
rfoot -14.0779 -13.8531
rtoes -17.349
lfemur -41.5118 -9.32559 -11.9141
ltibia 46.3324
lfoot -10.6504 2.68898
ltoes -16.5383
677
root 0.202352 15.1577 -2.70227 9.52546 5.17692 -1.14584
lowerback 33.8963 2.13233 -1.39517
upperback 12.0934 2.21552 -0.784308
thorax -3.977 1.08706 -0.808543
lowerneck -18.1274 -3.57096 -10.1242
upperneck -3.34089 -2.95899 10.3283
head 2.19106 -1.00235 4.62349
rclavicle -5.66536e-015 -1.70955e-014
rhumerus 23.9974 20.5387 -69.6756
rradius 123.425
rwrist 27.937
rhand 1.06154 5.67889
rfingers 7.12502
rthumb 26.6067 -22.4718
lclavicle -5.66536e-015 -1.70955e-014
lhumerus 18.7683 -22.7132 68.366
lradius 116.267
lwrist -1.97439
lhand -15.2754 19.9607
lfingers 7.12502
lthumb 10.8991 49.6579
rfemur -39.9809 6.68147 14.4422
rtibia 49.2577
rfoot -14.0777 -13.8576
rtoes -17.4794
lfemur -41.4955 -9.28808 -11.9476
ltibia 46.3454
lfoot -10.6504 2.62904
ltoes -16.5666
678
root 0.208099 15.1579 -2.69877 9.49465 5.13818 -1.17316
lowerback 33.9614 2.16545 -1.33675
upperback 12.0937 2.2704 -0.809778
thorax -3.99735 1.1157 -0.885527
lowerneck -18.3324 -3.48895 -10.2529
upperneck -3.14 -2.81547 10.3983
head 2.27091 -0.920169 4.67716
rclavicle 1.20265e-014 -1.81888e-014
rhumerus 23.8439 20.2245 -69.6174
rradius 123.466
rwrist 27.7677
rhand 1.09701 5.72214
rfingers 7.12502
rthumb 26.6407 -22.4234
lclavicle 1.20265e-014 -1.81888e-014
lhumerus 18.826 -22.8516 68.2481
lradius 116.363
lwrist -1.86218
lhand -15.2617 19.7748
lfingers 7.12502
lthumb 10.9123 49.4712
rfemur -39.934 6.74189 14.4507
rtibia 49.2523
rfoot -14.0938 -13.8933
rtoes -17.7099
lfemur -41.4435 -9.21374 -11.9702
ltibia 46.3375
lfoot -10.6708 2.57944
ltoes -16.6262
